<svg fill="none" viewBox="0 0 153 28" xmlns="http://www.w3.org/2000/svg">
<title></title>
<path clip-rule="evenodd" d="M145.8 15.6l-.1-.1v-.1c1.6-2 5-5.7 6.3-6.9h-2c-1.2 0-2 .2-3 1-1.8 1.6-3.2 3.6-4.7 5.5l-.3.4v-11h-3.6v19.1h3.6v-7.7l.3.3c1.7 2.3 3.4 4.5 5.4 6.6.6.6 1.6 1 2.4 1 1 0 1.6-.3 2-.7l-6.3-7.4zM74.6 8.2c-4.3 0-7.4 3.1-7.4 8.2 0 4.6 3.7 7.4 7.5 7.4 2.2 0 3.6-.3 4.4-1v-2.5c-1.1.5-2.5.7-3.7.7-2.3 0-4.2-1.2-4.5-3.3v-.2h2.7c2.5 0 4.3-.2 5.5-.7 1.1-.6 1.6-1.5 1.6-2.8 0-3.6-2.9-5.8-6-5.8zm1.8 6.6c-.7.3-1.8.4-3.7.4h-1.9v-.7c.2-1.9 1.5-3.4 3.5-3.4 1 0 1.7.2 2.2.6.6.4.9 1 .9 1.8 0 .6-.3 1-1 1.3zm6.2-.8v9.6h3.6v-8.9c0-1.2.2-2 .7-2.6.5-.6 1.2-.8 2.1-.8h1V8.6a4 4 0 00-1.8-.3c-4 0-5.6 2.8-5.6 5.8zm-47 9.6H39V4.3h-3.6v19.3zM48.6 8.2c-4.7 0-6.8 3.2-6.8 6.4v9h3.5v-8.7c0-1.2.3-2 .8-2.7.6-.6 1.3-1 2.2-1 1 0 1.9.3 2.5 1 .5.6.8 1.6.8 3v8.4h3.6v-8.8c0-4.3-3-6.6-6.6-6.6zm12.9-3.9H58v14c0 3.4 1.8 5.5 5.7 5.5 1.6 0 2.6-.5 3-1.3v-2.2c-.6.2-1.5.4-2.5.4-.8 0-1.5-.2-2-.7-.4-.5-.6-1.2-.6-2.2v-6.5h3c1.6 0 2.2-1 2.2-1.7V8.2h-5.2V4.3zM129 8.2c-4.8 0-6.9 3.2-6.9 6.4v9h3.6v-8.7c0-1.2.3-2 .8-2.7.5-.6 1.3-1 2.2-1 1 0 1.8.3 2.4 1 .6.6.9 1.6.9 3v8.4h3.5v-8.8c0-4.3-3-6.6-6.5-6.6zm-29.6 0c-2 0-3.3 1.2-4 2.2l-.3.5V4.3h-3.6v12c0 5 3.1 7.5 7.1 7.5 4.6 0 7.4-3.5 7.4-8s-2.9-7.6-6.6-7.6zM99 20.8c-1.2 0-2.2-.3-2.9-1.1-.7-.9-1-2.2-1-4 0-2.4 1.5-4.4 3.5-4.4 1.2 0 2.2.3 2.8 1.1.7.8 1 2.1 1 4 0 2.5-1.4 4.4-3.4 4.4zm14.3-12.6c-2.1 0-3.5.6-4.5 1.3V12a9 9 0 014-.9c1.1 0 2.1.2 2.7.7.6.4 1 1.2 1 2.3v.4H115c-5.7 0-7.6 2-7.6 4.6 0 2.7 2.4 4.7 6 4.7h.9c3.4 0 5.7-2.1 5.7-5.3V15c0-5.4-3.1-6.8-6.6-6.8zm3.1 10.3c0 .8-.2 1.5-.6 2-.5.3-1.1.5-2 .5-.9 0-1.6-.1-2-.5-.6-.3-.9-.9-.8-1.5 0-.7.2-1.2.8-1.6.6-.3 1.6-.5 3.1-.5h1.5v1.6z" fill="#05BE50" fill-rule="evenodd"></path> <path clip-rule="evenodd" d="M3.8 0C1.8 0 0 1.9 0 3.9v24.3h24c2.1 0 3.8-1.7 3.8-3.8V.1H3.8zm17.6 20.3L6.6 23V8l14.8-2.8v15z" fill="#0039A6" fill-rule="evenodd" id="brand-text"></path> </svg>
