<?xml version="1.0" standalone="no"?>
<!DOCTYPE svg PUBLIC "-//W3C//DTD SVG 20010904//EN"
 "http://www.w3.org/TR/2001/REC-SVG-20010904/DTD/svg10.dtd">
<svg version="1.0" xmlns="http://www.w3.org/2000/svg"
 width="156.000000pt" height="156.000000pt" viewBox="0 0 156.000000 156.000000"
 preserveAspectRatio="xMidYMid meet">

<g transform="translate(0.000000,156.000000) scale(0.100000,-0.100000)"
fill="#000000" stroke="none">
<path d="M680 1155 l0 -245 85 0 85 0 0 245 0 245 -85 0 -85 0 0 -245z" fill="red"/>
<path d="M362 1152 c-144 -142 -203 -346 -157 -541 43 -183 174 -333 352 -406
33 -13 83 -27 111 -31 l52 -7 0 82 c0 80 0 81 -27 87 -67 14 -158 60 -207 105
-171 156 -178 419 -14 585 l50 52 -37 66 c-20 36 -40 68 -45 71 -5 3 -40 -26
-78 -63z" fill="red"/>
<path d="M1051 1150 l-40 -70 45 -45 c24 -25 47 -45 51 -45 11 0 133 74 133
81 0 11 -89 107 -120 129 l-28 20 -41 -70z" fill="red"/>
<path d="M1220 955 c-30 -19 -59 -36 -64 -38 -5 -2 -1 -33 9 -70 l18 -67 80 0
80 0 -7 51 c-7 55 -43 159 -54 158 -4 0 -32 -16 -62 -34z" fill="red"/>
<path d="M1176 688 c-2 -7 -10 -35 -18 -63 l-14 -50 70 -42 71 -42 12 22 c14
28 43 138 43 166 0 20 -5 21 -80 21 -56 0 -82 -4 -84 -12z" fill="red"/>
<path d="M1057 453 l-46 -47 37 -68 c20 -37 42 -68 48 -68 13 0 120 103 134
129 10 20 15 16 -93 81 l-33 19 -47 -46z" fill="red"/>
<path d="M863 342 l-53 -15 0 -80 0 -80 51 7 c28 4 75 16 104 27 l53 20 -40
69 c-22 39 -45 69 -51 69 -7 -1 -36 -8 -64 -17z" fill="red"/>
</g>
</svg>
