<svg id="Capa_1" data-name="Capa 1" xmlns="http://www.w3.org/2000/svg" viewBox="0 0 448 512"><defs><style>.cls-1{fill:#ef4444;}</style></defs><path class="cls-1" d="M128,0a32,32,0,0,1,32,32V64H288V32a32,32,0,0,1,64,0V64h48a48,48,0,0,1,48,48v48H0V112A48,48,0,0,1,48,64H96V32A32,32,0,0,1,128,0ZM0,192H448V464a48,48,0,0,1-48,48H48A48,48,0,0,1,0,464Zm64,80v32a16,16,0,0,0,16,16h32a16,16,0,0,0,16-16V272a16,16,0,0,0-16-16H80A16,16,0,0,0,64,272Zm128,0v32a16,16,0,0,0,16,16h32a16,16,0,0,0,16-16V272a16,16,0,0,0-16-16H208A16,16,0,0,0,192,272Zm144-16a16,16,0,0,0-16,16v32a16,16,0,0,0,16,16h32a16,16,0,0,0,16-16V272a16,16,0,0,0-16-16ZM64,400v32a16,16,0,0,0,16,16h32a16,16,0,0,0,16-16V400a16,16,0,0,0-16-16H80A16,16,0,0,0,64,400Zm144-16a16,16,0,0,0-16,16v32a16,16,0,0,0,16,16h32a16,16,0,0,0,16-16V400a16,16,0,0,0-16-16Zm112,16v32a16,16,0,0,0,16,16h32a16,16,0,0,0,16-16V400a16,16,0,0,0-16-16H336A16,16,0,0,0,320,400Z" transform="translate(0 0)"/></svg>