<svg id="Capa_1" data-name="Capa 1" xmlns="http://www.w3.org/2000/svg" viewBox="0 0 575.96 448"><defs><style>.cls-1{fill:#ef4444;}</style></defs><path class="cls-1" d="M88.7,223.8,0,375.8V96A64.06,64.06,0,0,1,64,32H181.5a64,64,0,0,1,45.3,18.7l26.5,26.5a64,64,0,0,0,45.3,18.7H416a64.06,64.06,0,0,1,64,64v32H144a64,64,0,0,0-55.3,31.8Zm27.6,16.1A32,32,0,0,1,144,224H544a32.06,32.06,0,0,1,27.6,48.2l-112,192A31.86,31.86,0,0,1,432,480H32A32.06,32.06,0,0,1,4.4,431.8l112-192Z" transform="translate(0 -32)"/></svg>