<svg id="Capa_1" data-name="Capa 1" xmlns="http://www.w3.org/2000/svg" viewBox="0 0 512 512"><defs><style>.cls-1{fill:#ef4444;}</style></defs><path class="cls-1" d="M352,256a625.29,625.29,0,0,1-3.3,64H163.3a598.06,598.06,0,0,1-3.3-64,625.29,625.29,0,0,1,3.3-64H348.7A598.06,598.06,0,0,1,352,256Zm28.8-64H503.9a256.89,256.89,0,0,1,0,128H380.8a631.81,631.81,0,0,0,3.2-64A631.81,631.81,0,0,0,380.8,192Zm112.6-32H376.7c-10-63.9-29.8-117.4-55.3-151.6A256.5,256.5,0,0,1,493.3,160Zm-149.1,0H167.7c6.1-36.4,15.5-68.6,27-94.7,10.5-23.6,22.2-40.7,33.5-51.5C239.4,3.2,248.7,0,256,0s16.6,3.2,27.8,13.8c11.3,10.8,23,27.9,33.5,51.5C328.9,91.3,338.3,123.5,344.3,160Zm-209,0H18.6A256.66,256.66,0,0,1,190.6,8.4C165.1,42.6,145.3,96.1,135.3,160ZM8.1,192H131.2a641.6,641.6,0,0,0,0,128H8.1a256.89,256.89,0,0,1,0-128ZM194.7,446.6c-11.6-26-20.9-58.2-27-94.6H344.3c-6.1,36.4-15.5,68.6-27,94.6-10.5,23.6-22.2,40.7-33.5,51.5S263.3,512,256,512s-16.6-3.2-27.8-13.8c-11.3-10.8-23-27.9-33.5-51.5ZM135.3,352c10,63.9,29.8,117.4,55.3,151.6A256.66,256.66,0,0,1,18.6,352Zm358.1,0A256.71,256.71,0,0,1,321.5,503.6c25.5-34.2,45.2-87.7,55.3-151.6Z" transform="translate(0 0)"/></svg>