<svg id="Capa_1" data-name="Capa 1" xmlns="http://www.w3.org/2000/svg" viewBox="0 0 640 448"><defs><style>.cls-1{fill:#ef4444;}</style></defs><path class="cls-1" d="M64,96a64.06,64.06,0,0,1,64-64H512a64.06,64.06,0,0,1,64,64V352H512V96H128V352H64ZM0,403.2A19.2,19.2,0,0,1,19.2,384H620.8A19.2,19.2,0,0,1,640,403.2,76.82,76.82,0,0,1,563.2,480H76.8A76.82,76.82,0,0,1,0,403.2ZM281,209l-31,31,31,31a24,24,0,1,1-33.9,33.9l-48-48a23.9,23.9,0,0,1,0-33.9l48-48A24,24,0,1,1,281,208.9Zm112-34,48,48a23.9,23.9,0,0,1,0,33.9l-48,48A24,24,0,0,1,359.1,271l31-31-31-31A24,24,0,0,1,393,175.1Z" transform="translate(0 -32)"/></svg>