<svg id="Capa_1" data-name="Capa 1" xmlns="http://www.w3.org/2000/svg" viewBox="0 0 448 448"><defs><style>.cls-1{fill:#0a66c2;}</style></defs><path class="cls-1" d="M416,32H31.9A32.14,32.14,0,0,0,0,64.3V447.7A32.14,32.14,0,0,0,31.9,480H416a32.22,32.22,0,0,0,32-32.3V64.3A32.22,32.22,0,0,0,416,32ZM135.4,416H69V202.2h66.5V416ZM102.2,173a38.5,38.5,0,1,1,38.5-38.5A38.52,38.52,0,0,1,102.2,173ZM384.3,416H317.9V312c0-24.8-.5-56.7-34.5-56.7-34.6,0-39.9,27-39.9,54.9V416H177.1V202.2h63.7v29.2h.9c8.9-16.8,30.6-34.5,62.9-34.5,67.2,0,79.7,44.3,79.7,101.9Z" transform="translate(0 -32)"/></svg>