<svg id="Capa_1" data-name="Capa 1" xmlns="http://www.w3.org/2000/svg" viewBox="0 0 372.3 469.89"><defs><style>.cls-1{fill:#f48024;}.cls-2{fill:#bcbcbb;}</style></defs><polygon class="cls-1" points="281.7 279 86 237.7 77.8 277 273.5 318 281.7 279"/><polygon class="cls-1" points="332.7 192 179.2 63.7 153.7 94.5 307.2 222.8 332.7 192"/><polygon class="cls-1" points="301.5 231.7 120.2 147 103.5 183.5 284.7 268 301.5 231.7"/><polygon class="cls-1" points="253 0 221 24 340.3 184.3 372.3 160.3 253 0"/><rect class="cls-1" x="73.5" y="328" width="200" height="39.7"/><polygon class="cls-2" points="319.5 429.89 40 429.89 40 309.89 0 309.89 0 469.89 359.5 469.89 359.5 309.89 319.5 309.89 319.5 429.89"/></svg>